<svg width="48" height="48" id="img"  viewBox="0 0 128 128" xmlns="http://www.w3.org/2000/svg"><g><path d="m90.24 103.7h-90.24v-58.96h89.62v4h-85.62v50.96h86.24z"/><path d="m128 103.7h-25.5v-4h21.5v-50.96h-21.19v-4h25.19z"/><path d="m117.9 82.56h-6.966v-4h2.966v-7.414h-2.966v-4h6.966z"/><path d="m83.65 82.56h-73.59v-15.41h73.59v4h-69.59v7.414h69.59z"/><path d="m9.541 55.72h24.77v4h-24.77z"/><path d="m111 89.12h7.481v4h-7.481z"/><path d="m60.58 89.12h23.06v4h-23.06z"/><path d="m9.541 89.12h7.606v4h-7.606z"/><path d="m103.9 113h-4v-107h-7.256v107h-4v-111h15.26z"/><path d="m91.43 68.25h10.91v4h-10.91z"/><path d="m91.43 60.96h10.91v4h-10.91z"/><path d="m83.85 38.82h-4v-28.64h23.89v4h-19.89z"/><path d="m100.5 126.1h-8.525l-3.363-10.24v-4.713h15.26v4.713zm-5.629-4h2.734l2.262-6.951h-7.256v0.072z"/></g></svg>
