<?xml version="1.0" encoding="UTF-8" standalone="no"?>
<svg
   xmlns:dc="http://purl.org/dc/elements/1.1/"
   xmlns:cc="http://creativecommons.org/ns#"
   xmlns:rdf="http://www.w3.org/1999/02/22-rdf-syntax-ns#"
   xmlns:svg="http://www.w3.org/2000/svg"
   xmlns="http://www.w3.org/2000/svg"
   xmlns:sodipodi="http://sodipodi.sourceforge.net/DTD/sodipodi-0.dtd"
   xmlns:inkscape="http://www.inkscape.org/namespaces/inkscape"
   enable-background="new 0 0 128 128"
   height="128"
   viewBox="0 0 128 128"
   width="128"
   version="1.1"
   id="svg30"
   sodipodi:docname="icon.svg"
   inkscape:version="1.0.2 (e86c870879, 2021-01-15)">
  <metadata
     id="metadata36">
    <rdf:RDF>
      <cc:Work
         rdf:about="">
        <dc:format>image/svg+xml</dc:format>
        <dc:type
           rdf:resource="http://purl.org/dc/dcmitype/StillImage" />
      </cc:Work>
    </rdf:RDF>
  </metadata>
  <defs
     id="defs34" />
  <sodipodi:namedview
     pagecolor="#ffffff"
     bordercolor="#666666"
     borderopacity="1"
     objecttolerance="10"
     gridtolerance="10"
     guidetolerance="10"
     inkscape:pageopacity="0"
     inkscape:pageshadow="2"
     inkscape:window-width="829"
     inkscape:window-height="480"
     id="namedview32"
     showgrid="false"
     inkscape:zoom="5.7421875"
     inkscape:cx="64"
     inkscape:cy="64"
     inkscape:window-x="0"
     inkscape:window-y="24"
     inkscape:window-maximized="0"
     inkscape:current-layer="svg30" />
  <g
     fill="#282d33"
     id="g28"
     style="fill:#000000">
    <path
       d="m90.243 103.703h-90.243v-58.957h89.615v4h-85.615v50.957h86.243z"
       id="path2"
       style="fill:#000000" />
    <path
       d="m128 103.703h-25.505v-4h21.505v-50.957h-21.189v-4h25.189z"
       id="path4"
       style="fill:#000000" />
    <path
       d="m117.945 82.564h-6.966v-4h2.966v-7.414h-2.966v-4h6.966z"
       id="path6"
       style="fill:#000000" />
    <path
       d="m83.646 82.564h-73.592v-15.414h73.592v4h-69.592v7.414h69.592z"
       id="path8"
       style="fill:#000000" />
    <path
       d="m9.541 55.721h24.769v4h-24.769z"
       id="path10"
       style="fill:#000000" />
    <path
       d="m110.979 89.119h7.481v4h-7.481z"
       id="path12"
       style="fill:#000000" />
    <path
       d="m60.583 89.119h23.063v4h-23.063z"
       id="path14"
       style="fill:#000000" />
    <path
       d="m9.541 89.119h7.606v4h-7.606z"
       id="path16"
       style="fill:#000000" />
    <path
       d="m103.865 112.975h-4v-107.043h-7.256v107.043h-4v-111.043h15.256z"
       id="path18"
       style="fill:#000000" />
    <path
       d="m91.428 68.25h10.906v4h-10.906z"
       id="path20"
       style="fill:#000000" />
    <path
       d="m91.428 60.957h10.906v4h-10.906z"
       id="path22"
       style="fill:#000000" />
    <path
       d="m83.852 38.82h-4v-28.639h23.889v4h-19.889z"
       id="path24"
       style="fill:#000000" />
    <path
       d="m100.498 126.068h-8.525l-3.363-10.238v-4.713h15.256v4.713zm-5.629-4h2.734l2.262-6.951h-7.256v.072z"
       id="path26"
       style="fill:#000000" />
  </g>
</svg>
