<svg enable-background="new 0 0 20 20" viewBox="0 0 20 20" xmlns="http://www.w3.org/2000/svg" width="100%" height="100%" id="img" stroke="none"><path clip-rule="evenodd" d="m13 8h-8c-.55 0-1 .45-1 1s.45 1 1 1h8c.55 0 1-.45 1-1s-.45-1-1-1zm0 3h-8c-.55 0-1 .45-1 1s.45 1 1 1h8c.55 0 1-.45 1-1s-.45-1-1-1zm0-6h-8c-.55 0-1 .45-1 1s.45 1 1 1h8c.55 0 1-.45 1-1s-.45-1-1-1zm6.56 12.44-3.23-3.23c1.05-1.47 1.67-3.27 1.67-5.21 0-4.97-4.03-9-9-9s-9 4.03-9 9 4.03 9 9 9c1.94 0 3.74-.62 5.21-1.67l3.23 3.23c.27.27.65.44 1.06.44.83 0 1.5-.67 1.5-1.5 0-.41-.17-.79-.44-1.06zm-10.56-1.44c-3.87 0-7-3.13-7-7s3.13-7 7-7 7 3.13 7 7-3.13 7-7 7z" fill-rule="evenodd"/></svg>