<svg height="32" viewBox="0 0 32 32" width="32" xmlns="http://www.w3.org/2000/svg"><path d="m21 16h2v2h-2z"/><path d="m9 16h8v2h-8z"/><path d="m21 12h2v2h-2z"/><path d="m9 12h8v2h-8z"/><path d="m9 8h14v2h-14z"/><path d="m25 2h-18a2.002 2.002 0 0 0 -2 2v25a1 1 0 0 0 1 1h1a.9987.9987 0 0 0 .8-.4l2.2-2.933 2.2 2.933a1.0353 1.0353 0 0 0 1.6 0l2.2-2.933 2.2 2.933a1.0353 1.0353 0 0 0 1.6 0l2.2-2.933 2.2 2.933a.9993.9993 0 0 0 .8.4h1a1 1 0 0 0 1-1v-25a2.0023 2.0023 0 0 0 -2-2zm0 25.333-2.2-2.933a1.0353 1.0353 0 0 0 -1.6 0l-2.2 2.933-2.2-2.933a1.0353 1.0353 0 0 0 -1.6 0l-2.2 2.933-2.2-2.933a1.0353 1.0353 0 0 0 -1.6 0l-2.2 2.933v-23.333h18z"/><path d="m0 0h32v32h-32z" fill="none"/></svg>