<svg width="48" height="48" stroke-width="0" version="1.1" viewBox="0 0 67.73 67.73" xmlns="http://www.w3.org/2000/svg" id="img"><path transform="scale(.2646)" d="m186.1 13.22c-2.185 0.02461-4.384 0.169-6.592 0.4355-25.08 3.014-36.49 18.45-52.77 36.29-19.54-19.99-32.16-35.68-62.16-36.1-33.58-0.4489-62.77 24.48-61.45 63.38 1.89 55.53 59.24 100.4 94.4 136l29.23 29.58 35.37-36.89c12.97-13.53 31.49-31.38 48.22-49.59 15.25-16.59 29.03-33.49 35.8-47.71 22.67-47.57-15.62-95.86-60.04-95.36zm-48.95 61.32c7.899 0 14.76 1.435 20.59 4.303l-4.16 19.54c-3.997-3.997-9.828-5.996-17.49-5.996-7.664 1e-6 -13.87 2.751-18.62 8.252-2.68 3.103-4.584 6.982-5.713 11.64h38.79l-2.258 10.93h-37.94c-0.04702 1.081-0.07032 2.467-0.07032 4.16 0 1.646 0.04659 3.362 0.1406 5.148h35.9l-2.256 10.93h-32.16c1.175 5.031 2.987 8.981 5.432 11.85 4.702 5.548 10.81 8.322 18.34 8.322 9.028 0 16.22-2.774 21.58-8.322v21.58c-6.112 3.056-13.23 4.586-21.37 4.586-13.73 0-25.01-4.702-33.85-14.11-6.018-6.395-9.992-14.37-11.92-23.91h-10.44l2.258-10.93h6.91c-0.04702-1.128-0.07031-2.328-0.07031-3.598 0-2.163 0.04659-4.065 0.1406-5.711h-9.238l2.258-10.93h8.393c1.975-9.357 5.9-17.18 11.78-23.48 8.887-9.498 20.57-14.25 35.05-14.25z" stroke-width="2.084"/></svg>
